<?xml version="1.0" standalone="no"?>
<!DOCTYPE svg PUBLIC "-//W3C//DTD SVG 20010904//EN"
 "http://www.w3.org/TR/2001/REC-SVG-20010904/DTD/svg10.dtd">
<svg version="1.0" xmlns="http://www.w3.org/2000/svg"
 width="300.000000pt" height="515.000000pt" viewBox="0 0 300.000000 515.000000"
 preserveAspectRatio="xMidYMid meet">
<metadata>
Created by potrace 1.10, written by Peter Selinger 2001-2011
</metadata>
<g transform="translate(0.000000,515.000000) scale(0.100000,-0.100000)"
fill="#000000" stroke="none">
<path d="M1056 5142 c-3 -5 -8 -26 -11 -48 -5 -30 -1 -50 19 -89 34 -67 33
-82 -6 -76 -12 2 -10 -27 2 -34 6 -4 9 -1 8 5 -2 7 4 14 12 16 8 1 26 6 40 10
24 6 24 6 6 -8 -15 -12 -16 -17 -6 -23 9 -6 11 -4 5 5 -6 10 -1 11 21 6 19 -4
24 -3 15 3 -11 7 -10 11 7 20 13 7 19 17 15 27 -5 13 -7 13 -23 -1 -21 -19
-34 -6 -23 22 6 16 5 16 -11 4 -15 -12 -19 -12 -32 1 -26 26 -42 87 -33 127 8
35 6 50 -5 33z"/>
<path d="M1275 5140 c3 -5 3 -26 -1 -45 -5 -26 -12 -37 -31 -41 -16 -4 -22
-11 -19 -21 3 -8 6 -17 6 -19 0 -2 7 -4 15 -4 18 0 35 31 35 65 0 15 4 24 10
20 6 -3 10 0 10 9 0 22 -11 46 -22 46 -5 0 -6 -4 -3 -10z"/>
<path d="M1376 5071 c-28 -9 -51 -22 -53 -27 -4 -13 35 -49 44 -41 3 4 1 7 -5
7 -20 0 -13 29 9 41 16 8 23 8 29 -1 6 -9 14 -8 34 5 26 17 27 17 41 -1 8 -10
13 -24 11 -30 -2 -6 0 -17 5 -25 7 -11 9 -10 9 4 0 12 4 16 13 11 6 -4 3 2 -7
14 -16 19 -17 22 -3 22 9 0 19 -5 22 -10 6 -9 35 10 35 23 0 4 -120 28 -131
26 -2 0 -26 -8 -53 -18z"/>
<path d="M1645 5076 c-41 -18 -65 -56 -65 -103 0 -39 25 -88 40 -78 4 3 10 -2
14 -10 3 -8 16 -15 28 -14 22 1 22 1 -2 8 -25 7 -25 7 -3 19 17 9 22 9 27 -3
9 -25 24 -17 66 36 22 28 40 46 40 40 0 -6 5 -11 11 -11 5 0 7 5 4 10 -3 6 1
10 9 10 18 0 21 -11 5 -27 -7 -7 -1 -10 20 -9 32 1 39 10 19 22 -7 5 -4 10 10
15 26 10 27 18 7 45 -12 16 -16 17 -24 4 -5 -8 -7 -18 -4 -24 4 -5 -3 -7 -15
-4 -12 4 -38 -2 -58 -13 -20 -10 -40 -16 -44 -14 -4 2 -12 -7 -18 -20 -7 -14
-16 -25 -22 -25 -21 0 -25 -2 -33 -16 -7 -13 -13 -11 -33 11 -28 30 -27 26
-14 60 9 23 13 25 26 14 8 -7 14 -8 13 -3 -5 30 4 52 27 62 14 7 22 17 19 22
-8 13 -13 12 -50 -4z"/>
<path d="M883 5072 c-26 -8 -93 -68 -93 -84 0 -6 -3 -8 -7 -5 -9 9 -33 -12
-33 -29 0 -8 5 -13 11 -11 7 1 15 -10 19 -25 4 -15 15 -37 24 -50 9 -12 16
-34 16 -48 1 -22 2 -23 11 -7 13 23 3 69 -22 101 -16 21 -17 25 -4 20 9 -4 23
-20 31 -37 11 -21 18 -26 24 -17 6 10 9 9 13 -1 4 -10 6 -9 6 4 1 23 24 22 45
-2 17 -18 17 -20 -1 -29 -10 -6 -14 -14 -10 -19 5 -4 13 0 18 10 6 9 15 15 20
11 5 -3 17 0 26 8 14 11 15 10 9 -10 -8 -24 -6 -25 19 -16 13 6 14 9 3 16 -9
6 -6 7 9 3 40 -11 46 6 11 31 -26 20 -94 41 -118 37 -3 0 -17 -3 -31 -7 -22
-5 -28 -2 -32 15 -3 12 -10 18 -17 14 -8 -5 -10 3 -8 26 2 25 11 37 36 51 18
10 38 15 44 12 7 -4 8 -2 4 4 -4 7 -2 12 3 12 19 0 12 -28 -11 -44 -26 -19
-10 -21 27 -4 29 13 31 25 9 56 -16 23 -17 24 -51 14z"/>
<path d="M1933 5074 c3 -4 0 -16 -8 -28 -17 -24 -19 -46 -5 -46 6 0 10 9 10
20 0 22 16 27 23 8 2 -7 3 -5 2 5 -4 22 28 23 45 2 7 -9 15 -13 17 -11 10 9
43 -29 43 -49 0 -18 -5 -21 -30 -17 -16 2 -28 7 -26 11 2 3 -13 6 -35 6 -35 0
-37 -1 -25 -19 12 -19 76 -30 76 -13 0 5 4 6 10 2 6 -4 5 -15 -2 -30 -6 -13
-15 -22 -19 -19 -15 9 -10 -13 6 -26 12 -10 15 -10 15 3 0 9 8 22 18 29 24 17
35 71 20 103 -6 14 -14 25 -18 25 -3 0 -16 9 -29 21 -15 15 -30 19 -47 15 -14
-4 -24 -2 -24 4 0 5 -5 10 -12 10 -6 0 -8 -3 -5 -6z"/>
<path d="M2236 4990 c-31 -19 -65 -73 -66 -101 0 -8 14 -31 30 -49 17 -18 30
-39 30 -46 0 -6 7 -17 15 -24 13 -11 15 -8 10 26 -3 25 -13 45 -31 59 -21 17
-25 26 -19 41 5 10 9 25 9 33 1 7 12 21 24 29 23 15 24 15 19 -19 -2 -19 -2
-26 0 -17 2 9 11 22 19 29 20 16 63 -6 61 -32 -1 -21 -13 -25 -19 -8 -2 7 -8
6 -15 -3 -10 -12 -5 -15 29 -17 51 -3 58 -7 58 -32 0 -14 -7 -19 -24 -19 -22
0 -40 -14 -41 -32 -1 -41 -45 30 -45 73 0 12 -5 16 -14 13 -12 -5 -12 -9 0
-32 8 -15 14 -33 14 -40 0 -7 9 -22 19 -33 l19 -20 21 22 21 23 0 -23 c0 -12
4 -20 10 -16 5 3 7 12 3 20 -6 16 12 21 21 6 3 -5 15 -7 26 -4 22 6 25 -3 10
-27 -6 -10 -3 -20 11 -33 10 -10 19 -25 19 -35 0 -14 2 -14 9 -3 8 12 14 12
40 1 18 -7 35 -10 38 -6 12 11 -32 36 -58 33 -24 -3 -26 -1 -23 35 3 34 0 39
-32 54 -26 13 -34 22 -31 35 3 11 1 22 -4 25 -5 3 -9 16 -9 28 0 13 -8 30 -17
37 -14 12 -16 12 -8 0 5 -10 4 -12 -4 -7 -6 4 -8 12 -5 18 9 13 -45 57 -71 58
-11 0 -33 -9 -49 -20z"/>
<path d="M1254 4979 c-17 -10 -39 -34 -49 -52 -16 -31 -16 -36 -2 -63 l16 -29
1 27 c0 14 -6 28 -12 31 -7 2 -1 8 15 12 21 5 25 10 17 20 -7 9 -6 16 5 25 12
10 15 10 15 -1 0 -8 6 -3 13 10 6 13 20 25 30 27 29 4 33 14 6 13 -13 0 -38
-9 -55 -20z"/>
<path d="M1523 4983 c-16 -6 -5 -33 13 -33 8 0 14 6 14 14 0 18 -11 25 -27 19z"/>
<path d="M562 4937 c-19 -25 -25 -40 -14 -33 7 4 12 3 12 -3 0 -5 -4 -12 -8
-15 -5 -3 -6 -25 -2 -48 7 -48 42 -104 70 -111 9 -2 20 -18 23 -35 10 -51 77
-100 77 -57 0 8 -6 12 -14 9 -16 -6 -46 32 -46 58 0 12 8 18 23 19 21 1 21 1
-3 9 -22 6 -23 8 -8 15 10 4 15 11 12 16 -3 6 0 17 7 25 6 8 8 18 4 22 -4 4
-10 1 -12 -5 -3 -7 -9 -13 -15 -13 -6 0 -7 8 -4 18 4 10 -2 7 -13 -8 -13 -16
-16 -29 -10 -34 13 -14 11 -38 -3 -33 -7 2 -12 10 -10 16 1 6 -3 11 -9 11 -6
0 -9 6 -6 14 3 7 1 18 -4 23 -14 14 -20 91 -8 98 5 4 15 3 22 -2 12 -7 15 -8
46 -11 8 -1 11 -5 8 -9 -4 -3 1 -12 11 -20 9 -8 11 -12 5 -8 -20 10 -15 -19 5
-31 15 -10 17 -6 16 48 -1 33 -5 62 -8 65 -14 14 -90 2 -108 -17 -22 -24 -28
-25 -28 -6 0 7 9 16 20 19 11 3 20 9 20 14 0 13 -37 13 -48 0z"/>
<path d="M1900 4905 c-9 -11 -9 -15 -1 -15 6 0 16 -11 21 -25 9 -25 21 -31 33
-18 4 3 1 13 -6 21 -10 13 -8 14 11 8 24 -8 29 3 10 22 -9 9 -14 7 -23 -5 -14
-19 -39 -8 -31 13 7 18 2 18 -14 -1z"/>
<path d="M1250 4843 c-19 -22 -21 -40 -3 -40 7 0 12 6 9 14 -5 12 13 18 38 14
5 -1 4 5 -4 13 -16 20 -21 20 -40 -1z"/>
<path d="M1970 4820 c0 -5 -8 -7 -17 -3 -11 4 -15 2 -10 -3 13 -14 57 -12 57
3 0 7 -7 13 -15 13 -8 0 -15 -4 -15 -10z"/>
<path d="M837 4796 c-6 -16 -10 -16 -25 -5 -15 13 -16 12 -4 -3 14 -17 9 -38
-9 -38 -6 0 -7 5 -3 12 4 7 3 8 -4 4 -6 -4 -23 0 -36 9 -25 16 -46 13 -46 -6
0 -6 5 -7 11 -3 17 10 30 -18 14 -30 -8 -6 -17 -24 -21 -41 -6 -28 -5 -28 7
-10 8 11 19 29 25 40 14 26 34 31 35 8 0 -10 3 -13 6 -5 2 6 13 12 23 12 24 0
42 24 38 52 -3 21 -4 21 -11 4z"/>
<path d="M2566 4775 c4 -8 15 -15 26 -15 14 0 18 -5 14 -15 -3 -8 0 -15 7 -16
7 0 2 -5 -10 -11 -13 -6 -23 -15 -23 -20 0 -5 -6 -6 -12 -2 -8 4 -8 2 1 -7 10
-11 15 -11 18 -1 3 6 11 12 20 12 12 0 11 -3 -3 -17 -16 -17 -16 -18 -1 -21
10 -2 15 -8 12 -13 -3 -5 0 -6 8 -3 33 12 25 79 -15 121 -24 26 -50 31 -42 8z"/>
<path d="M919 4757 c-15 -11 -20 -50 -7 -62 3 -3 5 5 4 17 -1 13 5 28 14 35
20 15 10 25 -11 10z"/>
<path d="M475 4741 c-6 -5 -28 -11 -51 -14 -49 -5 -64 -13 -64 -34 0 -13 3
-13 26 2 14 9 28 14 31 11 4 -3 12 -1 20 6 7 6 16 8 20 5 3 -4 11 1 18 9 10
14 15 15 36 4 13 -7 27 -18 31 -24 4 -6 9 -8 12 -6 2 3 -1 13 -8 22 -15 21
-58 32 -71 19z"/>
<path d="M576 4662 c12 -12 13 -17 3 -23 -8 -4 -10 -11 -6 -15 8 -8 36 24 37
41 0 6 -11 11 -25 11 -22 2 -23 0 -9 -14z"/>
<path d="M459 4665 c-1 -5 -1 -14 0 -19 1 -5 -6 -17 -16 -28 -16 -18 -16 -19
3 -11 10 4 25 13 33 20 8 9 26 12 48 8 29 -4 34 -2 31 12 -4 22 -44 29 -64 12
-13 -10 -17 -10 -25 2 -5 8 -9 10 -10 4z"/>
<path d="M2695 4632 c72 -64 63 -87 -18 -46 -31 15 -47 19 -47 11 0 -17 47
-60 52 -46 2 6 13 3 28 -10 14 -11 19 -20 12 -21 -7 0 -10 -4 -7 -10 3 -5 1
-10 -5 -10 -7 0 -5 -7 4 -16 18 -17 21 -50 6 -56 -5 -2 -6 -22 -1 -53 5 -27
10 -45 11 -40 1 6 3 19 6 30 11 53 13 119 3 132 -9 10 -7 13 10 13 11 0 21 -5
21 -11 0 -5 4 -8 9 -5 8 5 6 28 -5 83 -6 29 -38 59 -78 72 l-31 11 30 -28z"/>
<path d="M320 4616 c-8 -8 -27 -27 -42 -42 -28 -26 -38 -77 -19 -88 5 -3 14
-26 20 -51 13 -51 39 -71 66 -51 11 8 15 18 10 26 -6 9 -9 10 -15 0 -4 -7 -13
-9 -19 -6 -14 9 -15 36 -1 36 6 0 10 6 10 13 0 19 37 50 49 42 7 -3 8 0 5 9
-9 22 -44 20 -70 -5 -26 -24 -40 -20 -46 16 -5 26 8 42 52 62 39 18 67 21 68
9 6 -40 15 -76 21 -76 3 0 12 9 18 20 7 11 27 23 45 28 17 4 33 13 35 19 3 9
-5 9 -32 2 -47 -13 -69 -5 -62 22 4 15 2 19 -9 15 -8 -3 -14 -1 -14 4 0 6 -4
10 -10 10 -5 0 -9 -3 -7 -7 2 -8 -6 -13 -24 -13 -5 0 -7 5 -4 10 9 15 -9 12
-25 -4z"/>
<path d="M2786 4443 c4 -21 10 -42 14 -48 11 -16 33 -120 29 -140 -4 -20 -39
-31 -39 -12 0 6 -10 2 -22 -10 -12 -13 -19 -26 -14 -30 4 -4 10 -3 14 3 9 13
38 24 46 17 3 -3 -5 -14 -17 -23 -12 -10 -19 -21 -16 -25 9 -8 59 42 50 51 -3
4 0 4 7 0 8 -5 10 -16 6 -29 l-6 -22 21 22 c25 26 27 35 5 26 -10 -4 -15 -1
-13 8 2 8 0 25 -4 39 -4 14 -12 41 -17 60 -33 129 -59 196 -44 113z"/>
<path d="M2610 4463 c0 -6 -9 -13 -19 -16 -13 -3 -18 -12 -16 -23 2 -11 4 -22
4 -26 1 -5 6 -8 12 -8 6 0 9 10 7 23 -2 12 4 27 12 34 8 6 12 15 7 19 -4 4 -7
3 -7 -3z"/>
<path d="M221 4368 c-1 -12 -9 -18 -25 -18 -14 0 -28 -5 -31 -10 -4 -6 -11 -8
-16 -5 -5 4 -9 1 -9 -4 0 -6 -9 -11 -19 -11 -23 0 -30 -10 -52 -70 -9 -27 -12
-55 -8 -70 4 -14 7 -46 8 -71 1 -35 7 -51 26 -69 14 -13 25 -20 25 -15 0 5 6
1 13 -10 8 -10 17 -14 20 -8 4 5 -5 16 -18 23 -14 7 -25 19 -25 27 0 7 -5 13
-11 13 -6 0 -8 9 -4 20 3 11 2 20 -3 20 -6 0 -9 15 -8 33 4 46 5 47 19 47 7 0
19 6 25 12 10 10 8 16 -10 30 -18 13 -21 19 -10 29 6 7 12 21 12 31 0 11 7 18
20 18 11 0 20 4 20 9 0 5 9 11 19 14 23 6 85 -29 76 -43 -9 -14 -17 -12 -10 3
4 6 1 5 -7 -4 -7 -9 -19 -14 -25 -12 -7 3 -13 -2 -13 -11 0 -20 36 -21 44 -1
3 8 13 15 23 15 10 0 26 7 36 14 10 8 26 12 37 9 10 -3 27 0 37 5 17 10 17 11
1 17 -9 4 -39 2 -65 -3 -49 -11 -62 -4 -85 48 -5 12 -7 12 -7 -2z"/>
<path d="M2757 4352 c-3 -4 -4 -22 -1 -38 3 -23 -1 -36 -21 -54 -26 -24 -32
-40 -15 -40 5 0 22 19 37 43 15 23 32 45 36 48 14 10 3 43 -15 47 -9 2 -19 -1
-21 -6z"/>
<path d="M143 4249 c6 -10 15 -15 19 -13 4 3 8 0 8 -7 0 -18 13 -2 17 21 2 15
-3 18 -26 18 -26 -1 -28 -3 -18 -19z"/>
<path d="M150 4163 c-8 -3 -18 -10 -21 -16 -8 -12 30 -107 43 -107 5 0 6 5 3
10 -3 6 -2 10 3 10 10 0 1 58 -13 80 -5 9 -4 11 3 6 7 -4 12 -1 12 8 0 17 -5
18 -30 9z"/>
<path d="M2851 4136 c-8 -10 -9 -16 -1 -21 13 -8 30 3 30 21 0 18 -14 18 -29
0z"/>
<path d="M2862 4085 c-13 -14 -28 -23 -35 -20 -7 4 -3 0 7 -9 10 -8 23 -13 27
-10 5 3 9 -4 9 -15 0 -12 -6 -21 -14 -21 -9 0 -14 -9 -13 -20 2 -29 13 -24 31
14 9 19 22 37 29 39 7 3 5 6 -5 6 -21 1 -24 31 -6 49 7 7 8 12 2 12 -6 0 -20
-11 -32 -25z"/>
<path d="M185 4009 c-13 -5 -15 -8 -5 -8 9 -1 16 -12 16 -27 2 -23 1 -24 -11
-7 -7 10 -17 15 -20 11 -4 -4 3 -20 16 -37 27 -33 55 -50 46 -27 -3 8 -1 17 6
20 7 2 4 5 -5 5 -21 1 -23 12 -6 29 9 9 9 12 1 12 -7 0 -13 8 -15 19 -2 14 -8
16 -23 10z"/>
<path d="M2890 4003 c0 -6 8 -18 18 -25 11 -7 21 -20 24 -28 5 -12 7 -12 13 3
9 20 4 27 -20 31 -9 1 -21 9 -26 17 -5 9 -9 10 -9 2z"/>
<path d="M2835 3949 l-30 -7 30 -1 c22 -1 26 -4 17 -13 -17 -17 -15 -28 6 -28
9 0 22 -12 29 -26 10 -21 10 -29 -3 -41 -8 -8 -11 -19 -8 -25 4 -6 0 -14 -7
-19 -7 -4 -10 -11 -6 -16 5 -4 12 -1 17 7 7 11 12 12 21 3 8 -8 2 -19 -23 -45
-37 -35 -45 -50 -62 -111 -10 -35 -33 -50 -29 -19 0 7 -2 10 -5 7 -10 -9 -11
-65 -2 -65 5 0 10 5 12 12 3 9 6 9 12 0 4 -7 2 -12 -3 -12 -19 0 -12 -20 7
-20 13 -1 11 -4 -8 -15 -19 -11 -21 -14 -7 -15 14 0 17 -8 15 -45 0 -25 -5
-45 -10 -45 -5 0 -8 -8 -7 -17 2 -10 -2 -28 -9 -40 -8 -15 -9 -24 -1 -28 7 -5
5 -15 -5 -30 -8 -13 -17 -45 -19 -72 -3 -26 -9 -48 -15 -48 -6 0 -14 -3 -18
-7 -4 -5 0 -8 9 -8 21 0 21 -9 0 -32 -16 -18 -16 -18 3 -12 17 7 17 6 5 -9 -7
-9 -10 -17 -6 -17 4 0 2 -6 -4 -13 -6 -8 -8 -17 -4 -20 3 -4 0 -13 -6 -21 -7
-8 -9 -21 -5 -27 4 -7 3 -9 -3 -6 -14 9 -23 -62 -12 -85 5 -9 5 -19 0 -22 -4
-3 -14 -26 -21 -51 -7 -26 -17 -42 -23 -38 -5 3 -7 2 -4 -4 8 -13 -23 -94 -34
-87 -5 3 -6 -1 -3 -9 17 -45 78 53 105 169 6 27 15 63 20 79 4 17 11 50 14 74
3 23 7 46 10 50 8 13 17 66 16 94 -1 15 5 41 14 57 9 18 11 31 5 35 -7 4 -6
13 1 26 20 38 37 123 34 169 -1 25 2 53 6 62 5 10 5 19 0 22 -5 3 -8 14 -6 24
2 9 6 33 10 52 3 22 20 53 44 78 25 29 38 53 39 73 0 16 -3 27 -7 25 -4 -3 -6
17 -3 45 4 43 2 52 -17 65 -11 8 -21 21 -21 29 0 19 -10 23 -45 14z"/>
<path d="M140 3921 c0 -16 7 -34 15 -41 12 -10 13 -7 6 18 -6 20 -5 34 2 41 8
8 6 11 -6 11 -12 0 -17 -8 -17 -29z"/>
<path d="M525 3941 c-6 -5 -19 -11 -30 -13 -19 -5 -19 -5 -2 -13 13 -5 25 -1
40 14 20 20 12 31 -8 12z"/>
<path d="M181 3892 c-1 -30 1 -33 22 -26 12 3 24 8 27 11 7 6 -23 23 -31 17
-4 -2 -10 4 -12 13 -3 10 -5 3 -6 -15z"/>
<path d="M458 3879 c-10 -6 -18 -17 -18 -24 0 -19 8 -19 27 0 20 20 13 37 -9
24z"/>
<path d="M189 3820 c-9 -30 -15 -37 -25 -29 -9 8 -10 2 -3 -28 5 -23 4 -39 -1
-41 -6 -2 -6 -10 0 -21 5 -10 7 -21 4 -24 -3 -3 0 -14 7 -25 7 -12 9 -27 4
-38 -15 -36 -13 -44 12 -51 25 -6 25 -7 8 -19 -14 -10 -15 -14 -4 -14 15 0 15
3 24 -170 5 -103 30 -226 90 -445 15 -55 30 -113 34 -130 4 -16 11 -30 16 -30
5 0 10 -4 10 -10 1 -5 4 -17 8 -25 3 -8 8 -35 10 -60 3 -25 3 24 1 109 -2 103
-7 157 -15 161 -8 6 -7 9 2 13 9 4 8 6 -5 6 -14 1 -16 -3 -10 -16 12 -28 14
-94 2 -87 -6 4 -7 20 -4 36 3 16 2 27 -3 23 -12 -7 -25 31 -16 45 3 5 0 8 -7
5 -8 -3 -14 3 -15 17 -7 77 -12 106 -22 131 -6 16 -11 41 -11 56 0 15 -5 32
-12 39 -7 7 -8 12 -2 12 11 0 12 56 1 67 -4 3 -7 -7 -8 -23 l-1 -29 -9 30 c-6
22 -5 31 6 38 18 10 20 31 3 24 -9 -3 -13 10 -13 47 0 28 -3 61 -7 74 -4 12
-4 22 0 22 4 0 8 20 9 45 2 37 -1 43 -14 38 -13 -5 -15 -2 -10 12 5 12 1 22
-13 32 -22 15 -28 47 -7 40 6 -2 11 -11 9 -21 -2 -9 2 -16 8 -16 5 0 10 6 10
13 0 8 3 7 10 -3 6 -10 9 -6 8 18 -1 17 -4 30 -7 28 -14 -9 -36 21 -37 49 -1
17 -5 40 -9 53 -6 19 -5 21 11 16 16 -6 17 -5 7 7 -19 19 -16 66 5 78 16 10
16 10 0 11 -11 0 -21 -13 -29 -40z"/>
<path d="M2658 3748 c-4 -9 -1 -21 7 -28 8 -6 16 -24 18 -38 4 -24 4 -24 6 6
0 17 -3 32 -8 32 -5 0 -11 10 -13 23 -3 18 -4 19 -10 5z"/>
<path d="M314 3475 c-11 -8 -14 -14 -6 -15 8 0 10 -8 6 -25 -8 -33 4 -32 16 1
6 15 15 23 22 19 7 -4 5 0 -4 8 -10 8 -15 17 -11 20 12 13 -3 7 -23 -8z"/>
<path d="M1035 3056 c17 -14 42 -24 58 -24 16 1 23 4 16 8 -6 4 -19 5 -29 3
-12 -3 -22 3 -29 16 -7 12 -19 21 -29 21 -13 0 -9 -6 13 -24z"/>
<path d="M335 3034 c0 -19 3 -34 8 -34 4 0 7 -9 7 -20 0 -11 5 -20 11 -20 7 0
9 10 4 28 -4 15 -7 37 -7 49 1 11 -4 23 -11 26 -8 3 -12 -7 -12 -29z"/>
<path d="M860 3060 c-18 -6 -20 -8 -7 -9 11 -1 15 -5 11 -13 -5 -8 -2 -9 11
-5 9 4 23 4 29 0 7 -5 3 1 -9 11 l-20 19 23 -6 c12 -3 20 -1 16 4 -6 10 -19
10 -54 -1z"/>
<path d="M1980 3039 c0 -7 -15 -10 -40 -7 -22 2 -36 0 -32 -3 15 -14 48 -15
75 -2 30 15 34 23 12 23 -8 0 -15 -5 -15 -11z"/>
<path d="M2230 2985 c29 -31 42 -32 31 -3 -4 12 -18 23 -31 25 l-24 3 24 -25z"/>
<path d="M849 2914 c-28 -6 -64 -21 -79 -33 -16 -11 -33 -21 -37 -22 -14 -1
-96 -64 -101 -78 -2 -7 14 -1 37 13 23 15 41 23 41 19 0 -3 10 3 23 14 12 11
43 32 69 47 54 31 160 45 220 28 21 -6 40 -7 43 -2 7 11 -90 31 -133 27 -18
-1 -56 -7 -83 -13z"/>
<path d="M1839 2901 c-41 -16 -102 -51 -88 -51 2 0 32 10 64 21 92 33 116 37
186 28 84 -10 161 -47 233 -110 31 -28 56 -47 56 -42 0 14 -92 98 -134 122
-90 51 -232 65 -317 32z"/>
<path d="M2584 2828 c-10 -28 -6 -50 9 -60 9 -6 8 -11 -3 -18 -8 -5 -10 -10
-4 -10 6 0 17 7 24 15 10 12 9 16 -4 21 -19 7 -22 50 -4 56 9 3 9 6 1 11 -7 4
-15 -2 -19 -15z"/>
<path d="M905 2832 c-22 -2 -42 -7 -45 -10 -3 -4 -23 -13 -44 -21 -22 -7 -51
-24 -65 -38 -14 -13 -36 -26 -48 -29 -12 -3 -20 -11 -17 -19 3 -7 1 -16 -5
-20 -6 -3 -11 -10 -11 -15 0 -5 16 0 35 11 19 12 35 16 35 11 0 -6 -4 -14 -10
-17 -14 -9 -12 -26 3 -24 6 1 23 -2 37 -8 48 -20 90 -31 90 -24 0 3 -19 13
-41 21 -23 8 -48 24 -55 36 -13 18 -11 24 18 53 17 18 40 37 50 42 16 9 18 5
18 -25 0 -81 40 -121 110 -110 50 8 80 48 80 107 0 44 10 47 42 9 13 -15 31
-31 41 -35 9 -3 17 -11 17 -17 0 -5 9 -10 20 -10 20 0 29 -19 10 -21 -5 -1
-14 -2 -19 -3 -5 0 -13 -5 -18 -10 -5 -5 6 -6 25 -3 19 4 31 3 27 -2 -3 -5 0
-13 6 -17 18 -11 2 44 -21 73 -25 33 -98 86 -135 101 -37 14 -78 18 -130 14z
m104 -58 c13 -12 13 -17 0 -41 -27 -53 -89 -96 -89 -62 0 6 -15 24 -32 40 -23
19 -30 31 -22 39 14 14 62 -9 70 -33 6 -19 25 -19 31 0 6 17 -27 44 -47 38
-11 -3 -20 0 -24 10 -12 33 80 40 113 9z"/>
<path d="M225 2810 c-11 -4 -29 -17 -39 -29 -17 -19 -18 -26 -7 -69 46 -182
50 -224 30 -394 l-13 -116 25 -36 c21 -31 24 -33 27 -15 2 11 -4 29 -13 40
-17 18 -17 61 0 154 12 65 14 155 3 149 -7 -5 -9 2 -4 22 5 16 11 51 16 79 7
47 5 53 -27 102 -19 29 -32 57 -29 62 4 5 20 12 37 16 24 5 36 2 55 -16 31
-29 44 -17 18 18 -24 31 -52 43 -79 33z"/>
<path d="M1957 2814 c-1 -2 -18 -5 -37 -7 -50 -5 -104 -34 -151 -79 -55 -53
-49 -69 31 -84 36 -7 70 -13 75 -13 22 -1 -32 23 -64 28 -23 4 -36 13 -42 29
-7 17 -6 22 4 19 6 -2 23 6 37 18 14 12 38 31 54 41 l28 18 -7 -42 c-5 -31 -2
-49 11 -71 52 -89 174 -56 174 46 0 24 4 43 8 43 5 0 28 -16 51 -37 35 -29
105 -73 118 -73 2 0 3 5 3 11 0 13 -17 30 -55 54 -16 11 -34 25 -38 32 -4 7
-12 13 -18 13 -5 0 -26 11 -47 24 -31 20 -124 40 -135 30z m58 -58 c29 -12 35
-20 35 -44 0 -31 -21 -55 -59 -67 -20 -6 -30 -1 -53 26 -22 24 -25 34 -16 41
8 4 17 2 24 -7 14 -19 44 -19 44 0 0 22 -36 38 -59 26 -15 -9 -18 -7 -16 12 1
12 3 23 4 25 4 8 67 0 96 -12z"/>
<path d="M2760 2743 c-8 -3 -27 -16 -42 -29 -15 -12 -33 -24 -40 -27 -9 -3
-10 -8 -3 -16 8 -8 21 -4 47 14 37 25 72 31 95 17 10 -6 6 -20 -16 -54 -24
-38 -29 -55 -25 -90 11 -124 12 -158 3 -163 -6 -4 -7 -58 -3 -142 l6 -135 -30
-37 c-16 -20 -36 -51 -46 -68 -9 -19 -27 -35 -41 -39 -20 -5 -23 -9 -15 -19 9
-10 6 -16 -9 -24 -11 -6 -26 -11 -33 -11 -7 0 -19 -9 -25 -19 -11 -18 -10 -19
20 -10 17 5 33 9 34 9 11 0 79 81 92 110 9 20 29 48 44 61 25 22 29 32 32 99
2 41 0 106 -5 143 -6 52 -5 77 6 103 8 18 14 51 14 72 0 21 6 61 14 88 24 82
24 109 -2 140 -20 24 -50 35 -72 27z"/>
<path d="M1107 2683 c5 -13 2 -15 -11 -10 -10 4 -27 0 -39 -8 -20 -14 -19 -15
21 -12 36 2 42 5 42 25 0 12 -4 22 -10 22 -5 0 -6 -8 -3 -17z"/>
<path d="M2577 2673 c-4 -3 -7 -27 -6 -52 l1 -46 12 35 c10 26 11 39 2 49 -8
11 -8 13 2 7 6 -4 12 -2 12 3 0 12 -13 14 -23 4z"/>
<path d="M2150 2655 c-8 -8 -33 -21 -55 -28 l-40 -14 46 1 c26 0 46 3 45 6 -2
3 5 13 16 23 17 16 18 16 18 -4 0 -11 5 -17 10 -14 7 4 7 13 0 26 -13 23 -21
24 -40 4z"/>
<path d="M792 2616 c7 -8 15 -12 17 -11 7 8 28 -21 24 -32 -3 -7 0 -13 5 -13
6 0 12 9 14 20 2 15 7 17 18 10 13 -9 13 -11 0 -20 -32 -21 83 -8 145 15 12 5
17 4 12 -1 -5 -5 -29 -17 -55 -27 -28 -10 -35 -15 -17 -11 17 3 50 14 75 25
51 23 42 39 -18 32 -20 -2 -46 -4 -57 -4 -11 0 -23 -5 -27 -12 -6 -9 -10 -9
-16 0 -4 7 -26 15 -47 19 -22 3 -48 10 -57 15 -24 13 -31 11 -16 -5z"/>
<path d="M1873 2581 c1 -11 12 -25 25 -30 17 -8 21 -8 16 0 -6 10 10 8 54 -8
6 -3 12 0 12 5 0 16 -22 27 -49 23 -17 -2 -21 1 -16 11 5 7 5 10 0 6 -4 -4
-16 -3 -26 2 -14 8 -17 6 -16 -9z"/>
<path d="M326 2481 c-18 -7 -18 -8 -3 -14 11 -4 17 -18 17 -38 0 -27 2 -30 16
-19 16 14 16 72 -1 76 -5 1 -19 -1 -29 -5z"/>
<path d="M2638 2396 c-21 -15 -23 -47 -6 -64 18 -18 28 -14 27 11 0 12 2 32 6
45 8 25 -2 28 -27 8z"/>
<path d="M330 2193 c0 -5 9 -19 19 -32 22 -29 36 -13 15 17 -15 21 -34 30 -34
15z"/>
<path d="M1163 2135 c-3 -9 -4 -17 -2 -19 8 -7 116 -54 152 -65 33 -11 63 -41
52 -52 -2 -2 6 -5 18 -5 12 -1 37 -4 55 -6 18 -3 35 -1 38 3 3 5 9 7 13 5 4
-3 12 4 19 15 14 22 0 26 -18 4 -23 -27 -97 -15 -125 21 -19 24 -159 114 -177
114 -10 0 -21 -7 -25 -15z"/>
<path d="M400 2135 c-2 -5 -4 -29 -5 -52 -1 -43 9 -58 17 -25 4 18 -8 93 -12
77z"/>
<path d="M1615 2089 c-106 -56 -94 -61 45 -22 42 12 65 24 65 33 0 26 -48 21
-110 -11z"/>
<path d="M250 2071 c0 -35 36 -88 74 -110 16 -9 37 -22 45 -28 9 -7 24 -18 33
-25 12 -9 19 -33 22 -77 3 -35 8 -66 11 -69 3 -3 0 -11 -6 -19 -7 -8 -8 -13
-1 -13 5 0 8 -9 5 -20 -4 -14 0 -20 12 -20 12 0 15 -5 10 -17 -9 -21 -8 -60 2
-76 13 -21 13 -47 0 -47 -6 0 -4 -5 6 -11 9 -5 17 -17 17 -24 0 -8 4 -15 8
-15 4 0 8 -9 8 -19 0 -11 -4 -17 -8 -15 -4 3 -8 -3 -8 -12 0 -10 3 -14 7 -11
4 4 19 -14 33 -40 31 -56 31 -84 0 -308 -23 -160 -26 -225 -9 -208 6 6 13 33
15 59 2 27 6 63 9 79 6 35 13 102 19 163 2 23 5 45 8 47 2 3 19 0 37 -5 29 -8
31 -7 20 6 -7 8 -18 13 -26 10 -8 -4 -18 5 -24 21 -10 28 -3 46 10 24 6 -9 10
-5 13 13 3 14 1 23 -3 20 -5 -3 -12 8 -15 23 -4 15 -14 33 -23 40 -9 7 -11 13
-5 13 12 0 15 32 4 40 -6 5 -37 68 -41 85 -1 6 -8 29 -15 52 -7 23 -10 50 -7
61 2 11 0 23 -6 26 -6 4 -11 25 -11 46 0 45 -9 72 -21 64 -5 -3 -7 15 -5 40 3
26 1 46 -5 46 -5 0 -9 14 -9 30 0 36 -31 70 -65 70 -18 0 -32 11 -51 40 -15
22 -31 40 -36 40 -5 0 -7 4 -3 9 3 5 0 13 -6 16 -5 4 -8 13 -5 21 3 8 1 14 -4
14 -6 0 -10 -13 -10 -29z"/>
<path d="M1116 2041 c16 -32 41 -51 68 -51 9 0 16 5 16 10 0 6 -7 10 -15 10
-8 0 -30 14 -49 31 l-35 30 15 -30z"/>
<path d="M2541 2023 c-15 -53 -14 -59 14 -77 30 -20 35 -20 35 -2 0 7 -10 16
-21 19 -19 5 -21 10 -15 51 9 56 1 60 -13 9z"/>
<path d="M1746 2005 c-11 -8 -34 -15 -52 -15 -18 0 -36 -4 -39 -10 -4 -6 6
-10 22 -10 43 0 68 10 81 31 14 23 13 23 -12 4z"/>
<path d="M1555 1970 c-4 -6 -13 -9 -20 -6 -7 2 -15 -4 -18 -15 -4 -17 -3 -18
9 -8 10 8 14 8 14 0 0 -6 5 -11 11 -11 6 0 9 6 6 14 -3 8 -1 17 6 19 7 2 9 7
6 11 -4 4 -10 2 -14 -4z"/>
<path d="M1365 1932 c-23 -32 -28 -52 -12 -52 18 0 33 12 46 37 25 48 -1 60
-34 15z"/>
<path d="M1460 1942 c6 -13 9 -26 6 -29 -3 -3 2 -12 12 -20 16 -12 16 -13 0
-7 -10 3 -18 1 -18 -5 0 -6 9 -11 20 -11 21 0 27 15 10 25 -6 4 -8 10 -6 13 2
4 -5 19 -15 32 -20 24 -20 24 -9 2z"/>
<path d="M1227 1883 c-2 -10 -8 -26 -12 -36 -7 -16 -4 -17 21 -11 37 8 70 28
37 21 -22 -5 -27 2 -24 31 3 19 -16 14 -22 -5z"/>
<path d="M1630 1871 c-6 -17 -19 -32 -28 -34 -15 -4 -15 -5 1 -12 22 -9 47 11
47 39 0 17 2 18 10 6 5 -8 10 -10 10 -4 0 6 -6 17 -14 23 -11 9 -16 5 -26 -18z"/>
<path d="M2523 1876 c-15 -13 -25 -28 -21 -32 10 -10 58 24 58 41 0 20 -4 19
-37 -9z"/>
<path d="M1152 1832 c-8 -23 -7 -29 4 -29 15 0 15 1 19 35 3 31 -11 28 -23 -6z"/>
<path d="M1351 1851 c-19 -12 -5 -31 24 -31 30 0 75 20 75 34 0 6 -5 5 -12 -2
-15 -15 -72 -16 -63 -2 8 12 -5 13 -24 1z"/>
<path d="M2464 1825 c-3 -19 -7 -51 -9 -70 -1 -19 -8 -41 -15 -50 -7 -8 -9
-15 -4 -15 5 0 9 -14 10 -30 1 -26 -1 -28 -14 -18 -13 11 -15 10 -9 -4 4 -12
2 -18 -8 -18 -18 0 -18 5 -5 31 7 13 7 19 0 19 -5 0 -13 -18 -16 -39 -4 -22
-13 -42 -20 -45 -8 -3 -14 -10 -14 -16 0 -6 5 -8 10 -5 6 3 10 0 10 -7 0 -7 8
2 16 20 20 38 34 42 34 7 0 -15 -9 -31 -25 -41 -18 -12 -24 -22 -20 -35 9 -28
-3 -59 -21 -52 -10 4 -14 -2 -14 -20 0 -14 -5 -29 -10 -32 -6 -4 -8 -15 -5
-26 4 -11 2 -19 -4 -19 -6 0 -11 -7 -11 -16 0 -8 -11 -30 -24 -47 -13 -18 -29
-43 -36 -57 -12 -24 -11 -24 20 5 18 17 29 24 25 16 -4 -8 -9 -44 -10 -80 -2
-36 -6 -110 -9 -164 -4 -54 -2 -105 3 -114 7 -13 10 -11 14 13 6 31 22 333 18
348 -1 5 4 16 12 25 8 9 17 28 21 44 3 15 11 27 16 27 6 0 10 16 10 36 0 21 4
33 10 29 6 -3 10 1 10 9 0 9 3 16 8 16 8 0 34 95 34 123 -1 9 3 17 8 17 16 0
23 62 9 71 -11 7 -11 9 1 9 11 0 16 14 17 53 1 28 5 71 8 95 8 51 -11 58 -21
7z"/>
<path d="M1010 1765 c-7 -8 -19 -15 -26 -15 -8 0 -14 -7 -14 -15 0 -18 26 -9
34 12 4 8 12 13 19 10 8 -3 14 1 14 9 0 18 -11 18 -27 -1z"/>
<path d="M1790 1758 c0 -24 11 -48 21 -48 12 0 6 37 -9 52 -9 9 -12 8 -12 -4z"/>
<path d="M1488 1653 c-8 -35 -31 -43 -68 -23 -13 7 -21 6 -30 -5 -16 -19 -54
-19 -70 0 -11 14 -14 13 -24 -1 -11 -14 -13 -14 -25 0 -15 18 -31 21 -31 6 0
-5 7 -10 16 -10 8 0 13 -4 10 -9 -3 -5 9 -9 28 -9 19 0 38 -2 43 -5 4 -3 48
-2 96 2 49 4 90 4 93 0 2 -3 27 -7 55 -8 29 0 59 -3 68 -5 23 -7 118 -16 104
-10 -7 3 -9 12 -6 21 5 13 3 13 -14 2 -27 -16 -55 -5 -46 18 6 17 5 17 -15 0
-14 -13 -27 -17 -44 -11 -13 4 -41 7 -63 5 -50 -2 -62 6 -67 44 l-3 30 -7 -32z"/>
<path d="M1001 1628 c-1 -10 -7 -18 -15 -18 -8 0 -17 -3 -19 -7 -8 -12 58 -15
171 -8 94 6 102 8 83 21 -16 11 -26 12 -41 4 -11 -6 -24 -9 -28 -6 -4 2 -27 1
-51 -4 -33 -6 -48 -4 -59 6 -7 8 -17 12 -22 9 -5 -3 -11 1 -13 7 -3 8 -6 6 -6
-4z"/>
<path d="M1780 1623 c0 -6 5 -15 11 -19 8 -4 8 -9 0 -17 -18 -18 -13 -26 17
-25 33 1 44 38 12 38 -11 0 -24 8 -29 18 -6 9 -11 12 -11 5z"/>
<path d="M733 1448 c0 -7 -4 -22 -8 -33 -5 -16 -5 -17 4 -5 6 8 11 11 11 5 0
-5 5 -2 11 8 10 17 5 37 -10 37 -4 0 -8 -6 -8 -12z"/>
<path d="M1283 1368 c20 -9 27 -18 23 -31 -3 -13 -1 -15 7 -9 7 5 17 11 24 13
23 7 -2 27 -42 33 -38 5 -39 5 -12 -6z"/>
<path d="M1379 1362 c-10 -2 -19 -12 -22 -22 -4 -15 -1 -17 17 -11 11 4 42 6
68 5 30 -1 46 3 45 10 -1 6 4 10 11 9 6 -2 12 1 12 5 0 8 -95 11 -131 4z"/>
<path d="M653 1239 c9 -5 17 -16 17 -23 0 -16 37 -28 46 -15 3 5 -1 9 -8 9 -8
0 -21 9 -31 20 -9 11 -22 20 -29 20 -8 0 -5 -5 5 -11z"/>
<path d="M925 1220 c-10 -11 -15 -26 -11 -35 7 -20 26 -10 26 15 0 10 5 20 12
22 8 3 9 6 1 11 -6 4 -18 -2 -28 -13z"/>
<path d="M1886 1145 c-13 -10 -16 -20 -11 -32 8 -17 8 -17 13 2 2 11 9 25 14
30 7 7 8 2 3 -15 -4 -14 -4 -21 1 -15 5 5 13 12 17 16 4 3 2 11 -5 17 -9 7
-18 7 -32 -3z"/>
<path d="M725 1091 c-2 -5 2 -14 10 -21 8 -7 12 -16 9 -21 -3 -5 0 -9 5 -9 17
0 13 47 -4 53 -8 4 -17 2 -20 -2z"/>
<path d="M809 1056 c-3 -2 -6 -46 -3 -46 6 0 34 32 34 39 0 6 -25 11 -31 7z"/>
<path d="M1594 1045 c14 -11 16 -15 5 -15 -12 0 -12 -2 1 -10 29 -19 40 -10
18 15 -12 14 -26 25 -32 25 -6 0 -2 -7 8 -15z"/>
<path d="M2020 963 c0 -5 -13 -22 -30 -39 -16 -18 -26 -34 -23 -38 8 -8 34 14
28 24 -3 5 4 11 15 15 17 5 30 45 15 45 -3 0 -5 -3 -5 -7z"/>
<path d="M2312 800 c-1 -63 3 -90 12 -93 14 -5 14 34 1 66 -9 21 3 22 30 1 44
-32 165 -159 155 -162 -5 -2 -10 -11 -10 -19 0 -12 3 -13 14 -4 12 10 18 7 32
-15 17 -25 17 -27 1 -39 -16 -11 -16 -13 -1 -19 23 -9 24 -8 17 11 -4 11 -3
14 5 9 27 -16 -33 86 -62 107 -15 10 12 27 44 27 22 1 23 2 7 11 -9 5 -21 8
-26 5 -5 -3 -21 6 -37 19 -39 34 -54 32 -21 -3 53 -55 26 -44 -35 14 -35 33
-74 67 -88 76 -14 9 -22 19 -19 22 3 3 23 -7 44 -24 35 -28 54 -29 83 -5 5 4
-110 91 -129 98 -15 5 -17 -5 -17 -83z"/>
<path d="M398 852 c-16 -9 -28 -20 -28 -24 0 -5 -7 -8 -15 -8 -9 0 -33 -12
-55 -26 -34 -22 -37 -29 -27 -44 6 -10 19 -21 29 -23 10 -3 16 -2 14 2 -8 12
33 42 100 73 60 28 62 30 46 49 -20 23 -29 23 -64 1z"/>
<path d="M955 861 c-3 -5 4 -12 15 -16 15 -5 19 -12 14 -31 -5 -19 -2 -24 14
-24 11 0 32 -14 46 -31 14 -17 26 -25 26 -19 0 7 7 10 15 7 8 -4 17 -2 20 4 4
5 -7 12 -24 15 -17 4 -31 10 -31 15 0 5 -7 9 -15 9 -8 0 -13 6 -11 13 1 6 1 9
-1 4 -10 -16 -21 5 -17 31 3 20 2 23 -5 12 -9 -12 -11 -12 -17 3 -7 19 -20 22
-29 8z"/>
<path d="M1865 841 c-3 -2 -5 -14 -6 -25 0 -12 -3 -15 -6 -8 -4 10 -9 9 -24
-4 -13 -11 -19 -13 -19 -5 0 7 -17 -1 -37 -17 -21 -16 -66 -38 -101 -47 -34
-10 -65 -21 -67 -25 -3 -4 12 -3 33 2 20 6 49 11 65 12 15 2 38 13 50 24 13
12 26 19 30 16 4 -4 9 0 12 8 4 10 14 14 26 11 11 -3 19 0 19 6 0 7 4 10 8 7
5 -3 20 8 35 24 26 27 26 29 7 27 -12 -1 -23 -3 -25 -6z"/>
<path d="M459 768 c-1 -2 -3 -12 -5 -23 -6 -38 -10 -50 -24 -72 -8 -13 -21
-23 -28 -23 -7 0 -11 -4 -8 -9 3 -5 16 -7 27 -4 21 6 21 4 -5 -33 -14 -21 -32
-39 -39 -39 -7 0 -11 -11 -9 -28 1 -15 -2 -27 -8 -27 -5 0 -10 -9 -10 -20 0
-23 -38 -88 -64 -109 -9 -7 -16 -20 -16 -27 0 -7 -9 -42 -19 -76 -39 -129 -55
-284 -28 -276 6 3 13 24 14 47 6 99 51 286 78 321 7 8 26 44 44 80 18 36 36
68 40 72 3 4 6 -32 7 -80 0 -75 4 -96 31 -153 48 -105 172 -289 194 -289 10 0
-9 32 -72 120 -84 118 -131 221 -143 315 -5 40 -2 64 19 120 24 65 46 215 31
215 -3 0 -7 -1 -7 -2z"/>
<path d="M236 725 c-4 -11 -2 -14 7 -9 6 4 2 -4 -10 -17 -34 -37 -83 -36 -50
1 6 8 0 4 -15 -9 -30 -27 -35 -35 -15 -28 6 2 20 -3 30 -11 15 -13 20 -14 26
-3 5 7 19 18 32 25 15 7 24 20 24 35 0 28 -20 39 -29 16z"/>
<path d="M2315 589 c3 -67 10 -108 24 -140 11 -24 21 -55 21 -69 0 -18 3 -21
9 -11 11 17 3 74 -15 109 -16 32 -18 62 -4 62 7 0 7 7 0 20 -6 11 -9 24 -6 28
3 5 -1 20 -9 35 -7 14 -16 34 -19 44 -3 10 -3 -25 -1 -78z"/>
<path d="M358 620 c-10 -9 -18 -23 -18 -31 0 -10 -3 -11 -8 -2 -8 13 -52 -17
-52 -36 0 -5 -6 -14 -13 -18 -18 -11 -47 -55 -97 -148 -23 -44 -46 -84 -50
-90 -6 -9 -90 -218 -104 -258 -3 -11 -3 -24 0 -29 4 -6 23 36 44 93 20 57 55
140 78 184 23 45 42 86 42 93 0 7 5 12 10 12 6 0 10 4 10 9 0 22 59 100 111
146 60 54 83 82 71 88 -4 3 -15 -3 -24 -13z"/>
<path d="M164 592 c-12 -15 -26 -38 -33 -52 l-12 -25 21 25 c12 14 30 35 41
48 10 12 19 24 19 27 0 12 -17 2 -36 -23z"/>
<path d="M35 546 c-21 -28 -24 -39 -16 -53 8 -14 11 -15 12 -3 1 8 1 21 0 28
-1 7 2 11 7 10 5 -2 18 8 29 21 17 21 21 22 35 8 17 -18 30 -13 21 9 -3 8 -18
14 -34 14 -20 0 -35 -9 -54 -34z"/>
<path d="M2590 564 c0 -8 4 -14 8 -14 5 0 24 -22 43 -50 19 -27 38 -50 42 -50
5 0 7 3 5 8 -25 51 -44 82 -50 82 -4 0 -5 6 -2 14 3 9 -4 15 -20 18 -18 4 -26
1 -26 -8z"/>
<path d="M83 516 c-6 -8 -9 -17 -5 -20 3 -4 0 -11 -8 -16 -12 -8 -12 -10 -2
-10 8 0 16 9 19 21 4 15 8 17 14 7 6 -9 8 -6 6 10 -1 25 -7 27 -24 8z"/>
<path d="M287 470 c-24 -67 -25 -79 -11 -73 7 3 12 9 9 13 -3 4 5 20 17 36 13
15 17 25 11 21 -6 -4 -13 -1 -16 5 -3 10 -6 9 -10 -2z"/>
<path d="M17 407 c-9 -30 -17 -65 -16 -78 0 -14 3 -18 6 -9 8 24 24 63 39 93
13 27 12 47 -4 47 -4 0 -15 -24 -25 -53z"/>
<path d="M2440 438 c0 -6 3 -8 6 -5 11 11 153 -288 178 -375 9 -32 21 -58 26
-58 13 0 14 -8 -19 90 -27 78 -88 218 -101 230 -3 3 -14 23 -25 45 -11 22 -22
42 -26 45 -3 3 -8 13 -12 23 -7 19 -27 23 -27 5z"/>
<path d="M98 414 c26 -20 29 -34 5 -34 -10 0 -25 -5 -33 -10 -13 -8 3 -9 53
-1 19 3 4 39 -20 49 -28 12 -28 12 -5 -4z"/>
<path d="M2681 388 c12 -24 30 -49 41 -56 20 -15 48 -74 48 -103 0 -11 3 -19
8 -19 4 0 16 -20 27 -45 l19 -44 46 5 c98 11 110 20 63 45 -20 11 -27 11 -30
2 -7 -20 -63 -16 -70 5 -3 9 -14 28 -23 42 -9 14 -20 37 -24 53 -7 30 9 36 46
16 15 -8 22 -8 28 0 7 12 120 -128 120 -149 0 -5 5 -10 10 -10 19 0 10 44 -16
82 -15 21 -30 38 -34 38 -4 0 -13 13 -20 29 -9 23 -20 30 -48 34 -20 3 -60 11
-89 18 -43 11 -52 17 -56 38 -3 14 0 29 6 33 8 5 6 8 -5 8 -10 0 -18 5 -18 10
0 6 -11 10 -25 10 l-25 0 21 -42z"/>
<path d="M2393 343 c22 -79 31 -217 18 -274 -6 -28 -6 -48 0 -58 8 -13 9 -11
6 6 -3 13 -2 23 3 23 14 0 31 110 19 131 -6 13 -7 37 -1 70 8 41 7 49 -4 45
-9 -3 -17 8 -24 34 -6 22 -13 40 -16 40 -3 0 -3 -8 -1 -17z"/>
<path d="M2352 280 c-7 -11 -12 -24 -12 -30 0 -20 -46 -107 -92 -174 -45 -65
-54 -87 -29 -71 13 7 84 113 108 159 16 30 45 128 40 133 -2 1 -8 -7 -15 -17z"/>
<path d="M178 164 c-47 -109 -56 -133 -50 -139 4 -3 0 -11 -8 -16 -11 -8 -11
-10 -1 -7 15 4 83 165 79 187 -2 8 -11 -4 -20 -25z"/>
<path d="M2477 178 c5 -7 18 -35 28 -63 10 -27 22 -54 26 -59 5 -6 9 -18 9
-28 0 -10 5 -18 10 -18 14 0 12 17 -4 48 -7 15 -24 51 -37 80 -12 28 -27 52
-32 52 -6 0 -6 -5 0 -12z"/>
<path d="M2751 78 c8 -15 17 -18 38 -13 33 7 61 -15 61 -46 0 -14 7 -19 28
-18 25 0 25 1 6 9 -12 5 -24 20 -28 34 -3 14 -11 26 -16 26 -5 0 -21 5 -37 12
-15 6 -36 12 -45 13 -14 2 -15 -1 -7 -17z"/>
</g>
</svg>
